<svg width="36" height="36" viewBox="0 0 36 36" fill="none" xmlns="http://www.w3.org/2000/svg">
<!-- <rect width="36" height="36" stroke="#BCC1CA"/> -->
<path d="M4.48769 14.6215C2.99148 11.3367 4.822 7.49704 8.31606 6.59135L17.5582 4.19568C13.8926 5.41231 12.0917 9.53933 13.6926 13.0541L18.7055 24.0593C19.2537 25.2628 18.7224 26.6829 17.5189 27.2311L12.976 29.3004C12.1517 29.6759 11.1792 29.312 10.8037 28.4877L4.48769 14.6215Z" fill="#636AE8"/>
<path d="M31.5123 21.0517C33.0085 24.3365 31.178 28.1761 27.6839 29.0818L18.4418 31.4775C22.1074 30.2609 23.9083 26.1339 22.3073 22.6191L17.2945 11.6139C16.7463 10.4103 17.2775 8.9903 18.4811 8.44209L23.024 6.37278C23.8482 5.99734 24.8208 6.36118 25.1962 7.18544L31.5123 21.0517Z" fill="#E8618C"/>
<path d="M10.4743 5.84189L11.4743 8.84189" stroke="white"/>
<path d="M25.4589 30L24.3434 27.0385" stroke="white"/>
</svg>
